what this doc is about....

Imagine what Earth would be like without people. ... Based on expert research and featuring Industrial Light and Magic's state-of-the-art imagery, this program reveals what the planet could be like centuries from now, without human inhabitants. Stunning animations present the effect a human-free Earth would have on natural resources, plants and animals. The program also examines the fate of many manmade structures.

this isn't the series!! 
 
http://www.amazon.com/Life-After-People-History-Blu-ray/dp/B001DYRES8

that is the dvd. Details are below


Video
ID                               : 1
Format                           : AVC
Format/Info                      : Advanced Video Codec
Format profile                   : High@L5.0
Format settings, CABAC           : Yes
Format settings, ReFrames        : 8 frames
Muxing mode                      : Container profile=Unknown@5.0
Codec ID                         : V_MPEG4/ISO/AVC
Duration                         : 1h 28mn
Bit rate                         : 3 917 Kbps
Nominal bit rate                 : 4 000 Kbps
Width                            : 1 920 pixels
Height                           : 1 080 pixels
Display aspect ratio             : 16:9
Frame rate                       : 23.976 fps
Resolution                       : 8 bits
Colorimetry                      : 4:2:0
Scan type                        : Progressive
Bits/(Pixel*Frame)               : 0.079
Stream size                      : 2.43 GiB (92%)
Writing library                  : x264 core 79 r1342kMod e8501ef

Audio
ID                               : 2
Format                           : AC-3
Format/Info                      : Audio Coding 3
Codec ID                         : A_AC3
Duration                         : 1h 28mn
Bit rate mode                    : Constant
Bit rate                         : 256 Kbps
Channel(s)                       : 2 channels
Channel positions                : L R
Sampling rate                    : 48.0 KHz
Stream size                      : 162 MiB (6%)
Language                         : English

sample is included